<svg id="target" xmlns="http://www.w3.org/2000/svg" viewBox="0 0 27 27">
    <defs>
        <symbol viewBox="0 0 24 24" id="clock24"><g fill="none" stroke="currentColor" stroke-linecap="round" stroke-linejoin="round" stroke-width="2"><path d="M3 12a9 9 0 1 0 18 0a9 9 0 0 0-18 0"></path><path d="M12 7v5l3 3"></path></g></symbol>
        <symbol viewBox="0 0 24 24" id="i-crown" stroke-width="2" stroke="currentColor" fill="none"
            stroke-linecap="round" stroke-linejoin="round">
            <path stroke="none" d="M0 0h24v24H0z" fill="none"></path>
            <path d="M12 6l4 6l5 -4l-2 10h-14l-2 -10l5 4z"></path>
        </symbol>
        <symbol viewBox="0 0 24 24" id="i-news">
            <path fill="none" stroke="currentColor" stroke-linecap="round" stroke-linejoin="round" stroke-width="2"
                d="M16 6h3a1 1 0 0 1 1 1v11a2 2 0 0 1-4 0V5a1 1 0 0 0-1-1H5a1 1 0 0 0-1 1v12a3 3 0 0 0 3 3h11M8 8h4m-4 4h4m-4 4h4">
            </path>
        </symbol>

        <symbol viewBox="0 0 24 24" id="ri-twitter-x-fill">
            <path fill="currentColor"
                d="M18.205 2.25h3.308l-7.227 8.26l8.502 11.24H16.13l-5.214-6.817L4.95 21.75H1.64l7.73-8.835L1.215 2.25H8.04l4.713 6.231l5.45-6.231Zm-1.161 17.52h1.833L7.045 4.126H5.078L17.044 19.77Z">
            </path>
        </symbol>
        <symbol viewBox="0 0 24 24" id="i-star">
            <g fill="none" stroke-linecap="round" stroke-linejoin="round" stroke-width="2">
                <path d="M0 0h24v24H0z"></path>
                <path fill="currentColor"
                    d="M4 11a1 1 0 0 1 .117 1.993L4 13H3a1 1 0 0 1-.117-1.993L3 11h1zm8-9a1 1 0 0 1 .993.883L13 3v1a1 1 0 0 1-1.993.117L11 4V3a1 1 0 0 1 1-1zm9 9a1 1 0 0 1 .117 1.993L21 13h-1a1 1 0 0 1-.117-1.993L20 11h1zM4.893 4.893a1 1 0 0 1 1.32-.083l.094.083l.7.7a1 1 0 0 1-1.32 1.497l-.094-.083l-.7-.7a1 1 0 0 1 0-1.414zm12.8 0a1 1 0 0 1 1.497 1.32l-.083.094l-.7.7a1 1 0 0 1-1.497-1.32l.083-.094l.7-.7zM14 18a1 1 0 0 1 1 1a3 3 0 0 1-6 0a1 1 0 0 1 .883-.993L10 18h4zM12 6a6 6 0 0 1 3.6 10.8a1 1 0 0 1-.471.192L15 17H9a1 1 0 0 1-.6-.2A6 6 0 0 1 12 6z">
                </path>
            </g>
        </symbol>
        <symbol viewBox="0 0 24 24" id="i-nextpage2">
            <path fill="none" stroke="currentColor" stroke-linecap="round" stroke-linejoin="round" stroke-width="2"
                d="m7 7l5 5l-5 5m6-10l5 5l-5 5"></path>
        </symbol>
        <symbol viewBox="0 0 24 24" id="i-prof">
            <g fill="none" stroke="currentColor" stroke-linecap="round" stroke-linejoin="round" stroke-width="2">
                <path d="M9 10a3 3 0 1 0 6 0a3 3 0 0 0-6 0M6 21v-1a4 4 0 0 1 4-4h4a4 4 0 0 1 4 4v1"></path>
                <path d="M3 5a2 2 0 0 1 2-2h14a2 2 0 0 1 2 2v14a2 2 0 0 1-2 2H5a2 2 0 0 1-2-2V5z"></path>
            </g>
        </symbol>
        <symbol viewBox="0 0 24 24" id="tabler-search">
            <path fill="none" stroke="currentColor" stroke-linecap="round" stroke-linejoin="round" stroke-width="2"
                d="M3 10a7 7 0 1 0 14 0a7 7 0 1 0-14 0m18 11l-6-6"></path>
        </symbol>
        <symbol viewBox="0 0 24 24" id="tabler-message-circle">
            <path fill="none" stroke="currentColor" stroke-linecap="round" stroke-linejoin="round" stroke-width="2"
                d="m3 20l1.3-3.9C1.976 12.663 2.874 8.228 6.4 5.726c3.526-2.501 8.59-2.296 11.845.48c3.255 2.777 3.695 7.266 1.029 10.501C16.608 19.942 11.659 20.922 7.7 19L3 20">
            </path>
        </symbol>
        <symbol viewBox="0 0 24 24" id="tabler-home"><g fill="none" stroke="currentColor" stroke-linecap="round" stroke-linejoin="round" stroke-width="2"><path d="M5 12H3l9-9l9 9h-2M5 12v7a2 2 0 0 0 2 2h10a2 2 0 0 0 2-2v-7"></path><path d="M9 21v-6a2 2 0 0 1 2-2h2a2 2 0 0 1 2 2v6"></path></g></symbol>
        <symbol viewBox="0 0 24 24" id="ic-baseline-arrow-upward"><path fill="currentColor" d="m4 12l1.41 1.41L11 7.83V20h2V7.83l5.58 5.59L20 12l-8-8l-8 8z"></path></symbol>
        <symbol viewBox="0 0 24 24" id="ic-baseline-arrow-forward-ios"><path fill="currentColor" d="M6.23 20.23L8 22l10-10L8 2L6.23 3.77L14.46 12z"></path></symbol>
        <symbol viewBox="0 0 24 24" id="i-toc"><g fill="none" stroke="currentColor" stroke-linecap="round" stroke-linejoin="round" stroke-width="2"><path d="M12.5 21H6a1 1 0 0 1-1-1V4a1 1 0 0 1 1-1h12a1 1 0 0 1 1 1v8m0 4v6m3-3l-3 3l-3-3"></path><path d="M11 17a1 1 0 1 0 2 0a1 1 0 0 0-2 0"></path></g></symbol>
        <symbol viewBox="0 0 24 24" id="tabler-menu-2"><path fill="none" stroke="currentColor" stroke-linecap="round" stroke-linejoin="round" stroke-width="2" d="M4 6h16M4 12h16M4 18h16"></path></symbol>
        <symbol viewBox="0 0 24 24" id="i-tag"><g fill="none" stroke="currentColor" stroke-linecap="round" stroke-linejoin="round" stroke-width="2"><circle cx="8.5" cy="8.5" r="1" fill="currentColor"></circle><path d="M4 7v3.859c0 .537.213 1.052.593 1.432l8.116 8.116a2.025 2.025 0 0 0 2.864 0l4.834-4.834a2.025 2.025 0 0 0 0-2.864L12.29 4.593A2.025 2.025 0 0 0 10.859 4H7a3 3 0 0 0-3 3z"></path></g></symbol>
        <symbol viewBox="0 0 24 24" id="tabler-message-2"><path fill="none" stroke="currentColor" stroke-linecap="round" stroke-linejoin="round" stroke-width="2" d="M8 9h8m-8 4h6m-5 5H6a3 3 0 0 1-3-3V7a3 3 0 0 1 3-3h12a3 3 0 0 1 3 3v8a3 3 0 0 1-3 3h-3l-3 3l-3-3z"></path></symbol>
        <symbol viewBox="0 0 24 24" id="tabler-category"><path fill="none" stroke="currentColor" stroke-linecap="round" stroke-linejoin="round" stroke-width="2" d="M4 4h6v6H4zm10 0h6v6h-6zM4 14h6v6H4zm10 3a3 3 0 1 0 6 0a3 3 0 1 0-6 0"></path></symbol>
    <symbol viewBox="0 0 24 24" id="i-folder"><path fill="none" stroke="currentColor" stroke-linecap="round" stroke-linejoin="round" stroke-width="2" d="M5 4h4l3 3h7a2 2 0 0 1 2 2v8a2 2 0 0 1-2 2H5a2 2 0 0 1-2-2V6a2 2 0 0 1 2-2"></path></symbol>
    <symbol viewBox="0 0 24 24" id="i-folder2"><g fill="none" stroke-linecap="round" stroke-linejoin="round" stroke-width="2"><path d="M0 0h24v24H0z"></path><path fill="currentColor" d="M9 3a1 1 0 0 1 .608.206l.1.087L12.414 6H19a3 3 0 0 1 2.995 2.824L22 9v8a3 3 0 0 1-2.824 2.995L19 20H5a3 3 0 0 1-2.995-2.824L2 17V6a3 3 0 0 1 2.824-2.995L5 3h4z"></path></g></symbol>
    <symbol viewBox="0 0 24 24" id="i-cross"><path fill="currentColor" d="M19 19H5V5h14v14zM3 3v18h18V3H3zm14 12.59L15.59 17L12 13.41L8.41 17L7 15.59L10.59 12L7 8.41L8.41 7L12 10.59L15.59 7L17 8.41L13.41 12L17 15.59z"></path></symbol>
    </defs>
</svg>