<svg id="target" xmlns="http://www.w3.org/2000/svg" viewBox="0 0 27 27">
    <defs>
        <symbol viewBox="0 0 24 24" id="ic-baseline-access-time"><path fill="currentColor" d="M11.99 2C6.47 2 2 6.48 2 12s4.47 10 9.99 10C17.52 22 22 17.52 22 12S17.52 2 11.99 2zM12 20c-4.42 0-8-3.58-8-8s3.58-8 8-8s8 3.58 8 8s-3.58 8-8 8z"></path><path fill="currentColor" d="M12.5 7H11v6l5.25 3.15l.75-1.23l-4.5-2.67z"></path></symbol>
        <symbol viewBox="0 0 24 24" id="clock24" stroke-width="2" stroke="currentColor" fill="none" stroke-linecap="round" stroke-linejoin="round">
            <path stroke="none" d="M0 0h24v24H0z" fill="none"></path>
            <path d="M3 12a9 9 0 0 0 5.998 8.485m12.002 -8.485a9 9 0 1 0 -18 0"></path>
            <path d="M12 7v5"></path>
            <path d="M12 15h2a1 1 0 0 1 1 1v1a1 1 0 0 1 -1 1h-1a1 1 0 0 0 -1 1v1a1 1 0 0 0 1 1h2"></path>
            <path d="M18 15v2a1 1 0 0 0 1 1h1"></path>
            <path d="M21 15v6"></path>
        </symbol>
        <symbol viewBox="0 0 24 24" id="nextpage" stroke-width="2" stroke="currentColor" fill="none" stroke-linecap="round" stroke-linejoin="round">
            <path stroke="none" d="M0 0h24v24H0z" fill="none"></path>
            <path d="M15 12l-4 -4v8z"></path>
            <path d="M12 12m-9 0a9 9 0 1 0 18 0a9 9 0 1 0 -18 0"></path>
        </symbol>
        <symbol viewBox="0 0 24 24" id="i-crown" stroke-width="2" stroke="currentColor" fill="none" stroke-linecap="round" stroke-linejoin="round">
            <path stroke="none" d="M0 0h24v24H0z" fill="none"></path>
            <path d="M12 6l4 6l5 -4l-2 10h-14l-2 -10l5 4z"></path>
        </symbol>
    </defs>
</svg>
