<svg xmlns="http://www.w3.org/2000/svg" viewBox="0 0 27 27"><defs><symbol viewBox="0 0 24 24" id="clock24"><g fill="none" stroke="currentColor" stroke-linecap="round" stroke-linejoin="round" stroke-width="2"><path d="M3 12a9 9 0 1018 0 9 9 0 00-18 0"/><path d="M12 7v5l3 3"/></g></symbol><symbol viewBox="0 0 24 24" id="i-crown" stroke-width="2" stroke="currentColor" fill="none" stroke-linecap="round" stroke-linejoin="round"><path stroke="none" d="M0 0h24v24H0z"/><path d="M12 6l4 6 5-4-2 10H5L3 8l5 4z"/></symbol><symbol viewBox="0 0 24 24" id="i-news"><path fill="none" stroke="currentColor" stroke-linecap="round" stroke-linejoin="round" stroke-width="2" d="M16 6h3a1 1 0 011 1v11a2 2 0 01-4 0V5a1 1 0 00-1-1H5a1 1 0 00-1 1v12a3 3 0 003 3h11M8 8h4m-4 4h4m-4 4h4"/></symbol><symbol viewBox="0 0 24 24" id="ri-twitter-x-fill"><path fill="currentColor" d="M18.205 2.25h3.308l-7.227 8.26 8.502 11.24H16.13l-5.214-6.817L4.95 21.75H1.64l7.73-8.835L1.215 2.25H8.04l4.713 6.231 5.45-6.231zm-1.161 17.52h1.833L7.045 4.126H5.078L17.044 19.77z"/></symbol><symbol viewBox="0 0 24 24" id="i-star"><g fill="none" stroke-linecap="round" stroke-linejoin="round" stroke-width="2"><path d="M0 0h24v24H0z"/><path fill="currentColor" d="M4 11a1 1 0 01.117 1.993L4 13H3a1 1 0 01-.117-1.993L3 11h1zm8-9a1 1 0 01.993.883L13 3v1a1 1 0 01-1.993.117L11 4V3a1 1 0 011-1zm9 9a1 1 0 01.117 1.993L21 13h-1a1 1 0 01-.117-1.993L20 11h1zM4.893 4.893a1 1 0 011.32-.083l.094.083.7.7a1 1 0 01-1.32 1.497l-.094-.083-.7-.7a1 1 0 010-1.414zm12.8 0a1 1 0 011.497 1.32l-.083.094-.7.7a1 1 0 01-1.497-1.32l.083-.094.7-.7zM14 18a1 1 0 011 1 3 3 0 01-6 0 1 1 0 01.883-.993L10 18h4zM12 6a6 6 0 013.6 10.8 1 1 0 01-.471.192L15 17H9a1 1 0 01-.6-.2A6 6 0 0112 6z"/></g></symbol><symbol viewBox="0 0 24 24" id="i-nextpage2"><path fill="none" stroke="currentColor" stroke-linecap="round" stroke-linejoin="round" stroke-width="2" d="M7 7l5 5-5 5m6-10l5 5-5 5"/></symbol><symbol viewBox="0 0 24 24" id="i-prof"><g fill="none" stroke="currentColor" stroke-linecap="round" stroke-linejoin="round" stroke-width="2"><path d="M9 10a3 3 0 106 0 3 3 0 00-6 0M6 21v-1a4 4 0 014-4h4a4 4 0 014 4v1"/><path d="M3 5a2 2 0 012-2h14a2 2 0 012 2v14a2 2 0 01-2 2H5a2 2 0 01-2-2V5z"/></g></symbol><symbol viewBox="0 0 24 24" id="tabler-search"><path fill="none" stroke="currentColor" stroke-linecap="round" stroke-linejoin="round" stroke-width="2" d="M3 10a7 7 0 1014 0 7 7 0 10-14 0m18 11l-6-6"/></symbol><symbol viewBox="0 0 24 24" id="tabler-message-circle"><path fill="none" stroke="currentColor" stroke-linecap="round" stroke-linejoin="round" stroke-width="2" d="M3 20l1.3-3.9C1.976 12.663 2.874 8.228 6.4 5.726c3.526-2.501 8.59-2.296 11.845.48 3.255 2.777 3.695 7.266 1.029 10.501C16.608 19.942 11.659 20.922 7.7 19L3 20"/></symbol><symbol viewBox="0 0 24 24" id="tabler-home"><g fill="none" stroke="currentColor" stroke-linecap="round" stroke-linejoin="round" stroke-width="2"><path d="M5 12H3l9-9 9 9h-2M5 12v7a2 2 0 002 2h10a2 2 0 002-2v-7"/><path d="M9 21v-6a2 2 0 012-2h2a2 2 0 012 2v6"/></g></symbol><symbol viewBox="0 0 24 24" id="ic-baseline-arrow-upward"><path fill="currentColor" d="M4 12l1.41 1.41L11 7.83V20h2V7.83l5.58 5.59L20 12l-8-8-8 8z"/></symbol><symbol viewBox="0 0 24 24" id="ic-baseline-arrow-forward-ios"><path fill="currentColor" d="M6.23 20.23L8 22l10-10L8 2 6.23 3.77 14.46 12z"/></symbol><symbol viewBox="0 0 24 24" id="i-toc"><g fill="none" stroke="currentColor" stroke-linecap="round" stroke-linejoin="round" stroke-width="2"><path d="M12.5 21H6a1 1 0 01-1-1V4a1 1 0 011-1h12a1 1 0 011 1v8m0 4v6m3-3l-3 3-3-3"/><path d="M11 17a1 1 0 102 0 1 1 0 00-2 0"/></g></symbol><symbol viewBox="0 0 24 24" id="tabler-menu-2"><path fill="none" stroke="currentColor" stroke-linecap="round" stroke-linejoin="round" stroke-width="2" d="M4 6h16M4 12h16M4 18h16"/></symbol><symbol viewBox="0 0 24 24" id="i-tag"><g fill="none" stroke="currentColor" stroke-linecap="round" stroke-linejoin="round" stroke-width="2"><circle cx="8.5" cy="8.5" r="1" fill="currentColor"/><path d="M4 7v3.859c0 .537.213 1.052.593 1.432l8.116 8.116a2.025 2.025 0 002.864 0l4.834-4.834a2.025 2.025 0 000-2.864L12.29 4.593A2.025 2.025 0 0010.859 4H7a3 3 0 00-3 3z"/></g></symbol><symbol viewBox="0 0 24 24" id="tabler-message-2"><path fill="none" stroke="currentColor" stroke-linecap="round" stroke-linejoin="round" stroke-width="2" d="M8 9h8m-8 4h6m-5 5H6a3 3 0 01-3-3V7a3 3 0 013-3h12a3 3 0 013 3v8a3 3 0 01-3 3h-3l-3 3-3-3z"/></symbol><symbol viewBox="0 0 24 24" id="tabler-category"><path fill="none" stroke="currentColor" stroke-linecap="round" stroke-linejoin="round" stroke-width="2" d="M4 4h6v6H4zm10 0h6v6h-6zM4 14h6v6H4zm10 3a3 3 0 106 0 3 3 0 10-6 0"/></symbol></defs></svg>