<svg xmlns="http://www.w3.org/2000/svg" viewBox="0 0 27 27"><defs><symbol viewBox="0 0 24 24" id="ic-baseline-access-time"><path fill="currentColor" d="M11.99 2C6.47 2 2 6.48 2 12s4.47 10 9.99 10C17.52 22 22 17.52 22 12S17.52 2 11.99 2zM12 20c-4.42 0-8-3.58-8-8s3.58-8 8-8 8 3.58 8 8-3.58 8-8 8z"/><path fill="currentColor" d="M12.5 7H11v6l5.25 3.15.75-1.23-4.5-2.67z"/></symbol><symbol viewBox="0 0 24 24" id="clock24" stroke-width="2" stroke="currentColor" fill="none" stroke-linecap="round" stroke-linejoin="round"><path stroke="none" d="M0 0h24v24H0z"/><path d="M3 12a9 9 0 005.998 8.485M21 12a9 9 0 10-18 0m9-5v5m0 3h2a1 1 0 011 1v1a1 1 0 01-1 1h-1a1 1 0 00-1 1v1a1 1 0 001 1h2m3-6v2a1 1 0 001 1h1m1-3v6"/></symbol><symbol viewBox="0 0 24 24" id="nextpage" stroke-width="2" stroke="currentColor" fill="none" stroke-linecap="round" stroke-linejoin="round"><path stroke="none" d="M0 0h24v24H0z"/><path d="M15 12l-4-4v8z"/><path d="M3 12a9 9 0 1018 0 9 9 0 10-18 0"/></symbol><symbol viewBox="0 0 24 24" id="i-crown" stroke-width="2" stroke="currentColor" fill="none" stroke-linecap="round" stroke-linejoin="round"><path stroke="none" d="M0 0h24v24H0z"/><path d="M12 6l4 6 5-4-2 10H5L3 8l5 4z"/></symbol><symbol viewBox="0 0 24 24" id="i-twitter" stroke-width="2" stroke="currentColor" fill="none" stroke-linecap="round" stroke-linejoin="round"><path stroke="none" d="M0 0h24v24H0z"/><path d="M22 4.01c-1 .49-1.98.689-3 .99-1.121-1.265-2.783-1.335-4.38-.737S11.977 6.323 12 8v1c-3.245.083-6.135-1.395-8-4 0 0-4.182 7.433 4 11-1.872 1.247-3.739 2.088-6 2 3.308 1.803 6.913 2.423 10.034 1.517 3.58-1.04 6.522-3.723 7.651-7.742a13.84 13.84 0 00.497-3.753c0-.249 1.51-2.772 1.818-4.013z"/></symbol><symbol viewBox="0 0 24 24" id="i-twitter2" stroke-width="2" stroke="currentColor" fill="none" stroke-linecap="round" stroke-linejoin="round"><path stroke="none" d="M0 0h24v24H0z"/><path d="M14.058 3.41c-1.807.767-2.995 2.453-3.056 4.38L11 7.972l-.243-.023C8.365 7.68 6.259 6.437 4.813 4.418a1 1 0 00-1.685.092l-.097.186-.049.099c-.719 1.485-1.19 3.29-1.017 5.203l.03.273c.283 2.263 1.5 4.215 3.779 5.679l.173.107-.081.043c-1.315.663-2.518.952-3.827.9-1.056-.04-1.446 1.372-.518 1.878 3.598 1.961 7.461 2.566 10.792 1.6 4.06-1.18 7.152-4.223 8.335-8.433l.127-.495c.238-.993.372-2.006.401-3.024l.003-.332.393-.779.44-.862.214-.434.118-.247c.265-.565.456-1.033.574-1.43l.014-.056.008-.018c.22-.593-.166-1.358-.941-1.358l-.122.007a.997.997 0 00-.231.057l-.086.038a7.46 7.46 0 01-.88.36l-.356.115-.271.08-.772.214c-1.336-1.118-3.144-1.254-5.012-.554l-.211.084z" stroke-width="0" fill="currentColor"/></symbol><symbol viewBox="0 0 24 24" id="i-news"><path fill="none" stroke="currentColor" stroke-linecap="round" stroke-linejoin="round" stroke-width="2" d="M16 6h3a1 1 0 011 1v11a2 2 0 01-4 0V5a1 1 0 00-1-1H5a1 1 0 00-1 1v12a3 3 0 003 3h11M8 8h4m-4 4h4m-4 4h4"/></symbol><symbol viewBox="0 0 24 24" id="ri-twitter-x-fill"><path fill="currentColor" d="M18.205 2.25h3.308l-7.227 8.26 8.502 11.24H16.13l-5.214-6.817L4.95 21.75H1.64l7.73-8.835L1.215 2.25H8.04l4.713 6.231 5.45-6.231zm-1.161 17.52h1.833L7.045 4.126H5.078L17.044 19.77z"/></symbol><symbol viewBox="0 0 24 24" id="i-star"><g fill="none" stroke-linecap="round" stroke-linejoin="round" stroke-width="2"><path d="M0 0h24v24H0z"/><path fill="currentColor" d="M4 11a1 1 0 01.117 1.993L4 13H3a1 1 0 01-.117-1.993L3 11h1zm8-9a1 1 0 01.993.883L13 3v1a1 1 0 01-1.993.117L11 4V3a1 1 0 011-1zm9 9a1 1 0 01.117 1.993L21 13h-1a1 1 0 01-.117-1.993L20 11h1zM4.893 4.893a1 1 0 011.32-.083l.094.083.7.7a1 1 0 01-1.32 1.497l-.094-.083-.7-.7a1 1 0 010-1.414zm12.8 0a1 1 0 011.497 1.32l-.083.094-.7.7a1 1 0 01-1.497-1.32l.083-.094.7-.7zM14 18a1 1 0 011 1 3 3 0 01-6 0 1 1 0 01.883-.993L10 18h4zM12 6a6 6 0 013.6 10.8 1 1 0 01-.471.192L15 17H9a1 1 0 01-.6-.2A6 6 0 0112 6z"/></g></symbol><symbol viewBox="0 0 24 24" id="i-goods"><g fill="none" stroke-linecap="round" stroke-linejoin="round" stroke-width="2"><path d="M0 0h24v24H0z"/><path fill="currentColor" d="M13 3a3 3 0 012.995 2.824L16 6v4h2a3 3 0 012.98 2.65l.015.174L21 13l-.02.196-1.006 5.032c-.381 1.626-1.502 2.796-2.81 2.78L17 21H9a1 1 0 01-.993-.883L8 20l.001-9.536a1 1 0 01.5-.865 2.998 2.998 0 001.492-2.397L10 7V6a3 3 0 013-3zm-8 7a1 1 0 01.993.883L6 11v9a1 1 0 01-.883.993L5 21H4a2 2 0 01-1.995-1.85L2 19v-7a2 2 0 011.85-1.995L4 10h1z"/></g></symbol><symbol viewBox="0 0 24 24" id="i-nextpage2"><path fill="none" stroke="currentColor" stroke-linecap="round" stroke-linejoin="round" stroke-width="2" d="M7 7l5 5-5 5m6-10l5 5-5 5"/></symbol><symbol viewBox="0 0 24 24" id="i-prof"><g fill="none" stroke="currentColor" stroke-linecap="round" stroke-linejoin="round" stroke-width="2"><path d="M9 10a3 3 0 106 0 3 3 0 00-6 0M6 21v-1a4 4 0 014-4h4a4 4 0 014 4v1"/><path d="M3 5a2 2 0 012-2h14a2 2 0 012 2v14a2 2 0 01-2 2H5a2 2 0 01-2-2V5z"/></g></symbol></defs></svg>