<svg xmlns="http://www.w3.org/2000/svg" viewBox="0 0 27 27"><defs><symbol viewBox="0 0 24 24" id="ic-baseline-access-time"><path fill="currentColor" d="M11.99 2C6.47 2 2 6.48 2 12s4.47 10 9.99 10C17.52 22 22 17.52 22 12S17.52 2 11.99 2zM12 20c-4.42 0-8-3.58-8-8s3.58-8 8-8 8 3.58 8 8-3.58 8-8 8z"/><path fill="currentColor" d="M12.5 7H11v6l5.25 3.15.75-1.23-4.5-2.67z"/></symbol><symbol viewBox="0 0 24 24" id="clock24" stroke-width="2" stroke="currentColor" fill="none" stroke-linecap="round" stroke-linejoin="round"><path stroke="none" d="M0 0h24v24H0z"/><path d="M3 12a9 9 0 005.998 8.485M21 12a9 9 0 10-18 0m9-5v5m0 3h2a1 1 0 011 1v1a1 1 0 01-1 1h-1a1 1 0 00-1 1v1a1 1 0 001 1h2m3-6v2a1 1 0 001 1h1m1-3v6"/></symbol><symbol viewBox="0 0 24 24" id="nextpage" stroke-width="2" stroke="currentColor" fill="none" stroke-linecap="round" stroke-linejoin="round"><path stroke="none" d="M0 0h24v24H0z"/><path d="M15 12l-4-4v8z"/><path d="M3 12a9 9 0 1018 0 9 9 0 10-18 0"/></symbol><symbol viewBox="0 0 24 24" id="i-crown" stroke-width="2" stroke="currentColor" fill="none" stroke-linecap="round" stroke-linejoin="round"><path stroke="none" d="M0 0h24v24H0z"/><path d="M12 6l4 6 5-4-2 10H5L3 8l5 4z"/></symbol></defs></svg>